<svg width="16" height="16" viewBox="0 0 16 16" fill="none" xmlns="http://www.w3.org/2000/svg">
<path d="M5.17194 14.828C3.55421 14.828 2.09576 13.8536 1.47658 12.359C0.857401 10.8644 1.1994 9.14413 2.34314 8.00005L4.04074 6.30244L5.17194 7.43365L3.47514 9.13045C2.86879 9.73677 2.63198 10.6205 2.85392 11.4488C3.07586 12.2772 3.72283 12.9241 4.55112 13.146C5.37941 13.368 6.26318 13.1312 6.86952 12.5248L8.56632 10.828L9.69752 11.96L8.00072 13.6568C7.252 14.4092 6.23342 14.831 5.17194 14.828ZM5.73754 11.3936L4.60634 10.2624L10.2631 4.60564L11.3943 5.73684L5.73834 11.3928L5.73754 11.3936ZM11.9607 9.69685L10.8287 8.56565L12.5255 6.86885C13.1402 6.2643 13.3833 5.37657 13.1626 4.54322C12.9418 3.70988 12.291 3.05896 11.4577 2.83799C10.6244 2.61703 9.73664 2.85998 9.13192 3.47444L7.43432 5.17124L6.30314 4.04004L8.00072 2.34244C9.5648 0.792016 12.0879 0.797536 13.6452 2.3548C15.2025 3.91206 15.208 6.43517 13.6575 7.99925L11.9607 9.69605V9.69685Z" fill="white"/>
</svg>
