<svg width="24" height="24" viewBox="0 0 24 24" fill="none" xmlns="http://www.w3.org/2000/svg">
<path d="M11.5 21C6.25329 21 2 16.7467 2 11.5C2 6.25329 6.25329 2 11.5 2C16.7467 2 21 6.25329 21 11.5C20.9942 16.7443 16.7443 20.9942 11.5 21ZM3.9 11.6634C3.94495 15.8445 7.35905 19.204 11.5404 19.1817C15.7218 19.1591 19.0995 15.7631 19.0995 11.5817C19.0995 7.40028 15.7218 4.00428 11.5404 3.9817C7.35905 3.95934 3.94495 7.31882 3.9 11.5V11.6634ZM12.45 16.25H10.55V12.45H6.75V10.55H10.55V6.75H12.45V10.55H16.25V12.45H12.45V16.25Z" fill="white"/>
</svg>
