<svg width="20" height="20" viewBox="0 0 20 20" fill="none" xmlns="http://www.w3.org/2000/svg">
<path d="M10.7476 18.3067C10.305 18.308 9.88041 18.1322 9.56841 17.8183L3.04004 11.2892C2.69553 10.9457 2.51888 10.4684 2.5567 9.98334L2.97337 4.51168C3.03279 3.68867 3.68854 3.0347 4.5117 2.97751L9.98341 2.56085C10.0259 2.55168 10.0692 2.55168 10.1117 2.55168C10.5532 2.55281 10.9765 2.72833 11.2892 3.04001L17.8184 9.56834C18.1311 9.88092 18.3067 10.3049 18.3067 10.7471C18.3067 11.1893 18.1311 11.6133 17.8184 11.9258L11.9259 17.8183C11.6141 18.1319 11.1897 18.3078 10.7476 18.3067ZM10.1109 4.21835L4.63504 4.63501L4.21837 10.1108L10.7476 16.64L16.6392 10.7483L10.1109 4.21835ZM7.2117 8.87834C6.41657 8.87851 5.73205 8.31698 5.57677 7.53716C5.42149 6.75733 5.83871 5.97641 6.57326 5.672C7.30782 5.36758 8.15512 5.62445 8.59699 6.2855C9.03883 6.94656 8.95216 7.82769 8.39008 8.39001C8.07823 8.70359 7.65394 8.87942 7.2117 8.87834Z" fill="white"/>
</svg>
