<svg width="20" height="16" viewBox="0 0 20 16" fill="none" xmlns="http://www.w3.org/2000/svg">
<g clip-path="url(#clip0)">
<path d="M4.59461 14.1462C4.4076 14.1458 4.22932 14.067 4.10328 13.9288C3.97491 13.7918 3.91112 13.6065 3.92794 13.4195L4.09128 11.6235L11.6366 4.08086L13.9946 6.43819L6.45128 13.9802L4.65528 14.1435C4.63461 14.1455 4.61394 14.1462 4.59461 14.1462ZM14.4653 5.96686L12.108 3.60953L13.522 2.19553C13.647 2.07034 13.8167 2 13.9936 2C14.1706 2 14.3402 2.07034 14.4653 2.19553L15.8793 3.60953C16.0045 3.73457 16.0748 3.90425 16.0748 4.08119C16.0748 4.25813 16.0045 4.42781 15.8793 4.55286L14.466 5.96619L14.4653 5.96686Z" fill="white"/>
</g>
<defs>
<clipPath id="clip0">
<rect width="19" height="16" fill="white" transform="translate(0.5)"/>
</clipPath>
</defs>
</svg>
