<svg xmlns="http://www.w3.org/2000/svg" id="svgid" xmlns:xlink="http://www.w3.org/1999/xlink" version="1.1" x="0px" y="0px" viewBox="0 0 0 0" enable-background="new 0 0 100 100" xml:space="preserve"><g display="none"><g display="inline"><g><defs><path id="h" d="M36.078,120.801c0-1.195-0.967-2.162-2.163-2.162H19.723c-1.195,0-2.163,0.967-2.163,2.162v32.711      c0,1.195,0.967,2.163,2.163,2.163h14.192c1.195,0,2.163-0.968,2.163-2.163V120.801z"/></defs><clipPath id="g"><use xlink:href="#h" overflow="visible"/></clipPath><g clip-path="url(#g)"><line fill="none" stroke="#000000" stroke-width="3" stroke-linecap="round" stroke-linejoin="round" stroke-miterlimit="10" x1="3.667" y1="97.469" x2="54.302" y2="148.105"/></g></g></g><g display="inline"><g><g><defs><polygon id="f" points="25.998,-33.656 10,-33.656 10,-90.662 69.992,-90.662 69.992,-95.662 5,-95.662 5,-28.656        25.998,-28.656      "/></defs><clipPath id="b"><use xlink:href="#f" overflow="visible"/></clipPath><g clip-path="url(#b)"><line fill="none" stroke="#000000" stroke-linecap="round" stroke-linejoin="round" stroke-miterlimit="10" x1="2.148" y1="34.021" x2="72.523" y2="-36.353"/><line fill="none" stroke="#000000" stroke-linecap="round" stroke-linejoin="round" stroke-miterlimit="10" x1="2.148" y1="24.022" x2="72.523" y2="-46.352"/><line fill="none" stroke="#000000" stroke-linecap="round" stroke-linejoin="round" stroke-miterlimit="10" x1="2.148" y1="14.023" x2="72.523" y2="-56.35"/><line fill="none" stroke="#000000" stroke-linecap="round" stroke-linejoin="round" stroke-miterlimit="10" x1="2.148" y1="4.024" x2="72.523" y2="-66.35"/></g><g clip-path="url(#b)"><line fill="none" stroke="#000000" stroke-width="0.5" stroke-linecap="round" stroke-linejoin="round" stroke-miterlimit="10" x1="2.148" y1="39.021" x2="72.523" y2="-31.353"/><line fill="none" stroke="#000000" stroke-width="0.5" stroke-linecap="round" stroke-linejoin="round" stroke-miterlimit="10" x1="2.148" y1="29.021" x2="72.523" y2="-41.352"/><line fill="none" stroke="#000000" stroke-width="0.5" stroke-linecap="round" stroke-linejoin="round" stroke-miterlimit="10" x1="2.148" y1="19.022" x2="72.523" y2="-51.351"/><line fill="none" stroke="#000000" stroke-width="0.5" stroke-linecap="round" stroke-linejoin="round" stroke-miterlimit="10" x1="2.148" y1="9.023" x2="72.523" y2="-61.35"/></g></g></g></g><g display="inline"><g><defs><path id="e" d="M80,90c0,2.762-2.238,5-5,5H25c-2.762,0-5-2.238-5-5V10c0-2.761,2.238-5,5-5h50c2.762,0,5,2.239,5,5V90      z"/></defs><clipPath id="a"><use xlink:href="#e" overflow="visible"/></clipPath><g clip-path="url(#a)"><line fill="none" stroke="#000000" stroke-linecap="round" stroke-linejoin="round" stroke-miterlimit="10" x1="16.82" y1="146.191" x2="87.201" y2="75.811"/><line fill="none" stroke="#000000" stroke-linecap="round" stroke-linejoin="round" stroke-miterlimit="10" x1="16.82" y1="136.191" x2="87.201" y2="65.811"/><line fill="none" stroke="#000000" stroke-linecap="round" stroke-linejoin="round" stroke-miterlimit="10" x1="16.82" y1="126.191" x2="87.201" y2="55.811"/><line fill="none" stroke="#000000" stroke-linecap="round" stroke-linejoin="round" stroke-miterlimit="10" x1="16.82" y1="116.191" x2="87.201" y2="45.811"/><line fill="none" stroke="#000000" stroke-linecap="round" stroke-linejoin="round" stroke-miterlimit="10" x1="16.82" y1="106.191" x2="87.201" y2="35.811"/><line fill="none" stroke="#000000" stroke-linecap="round" stroke-linejoin="round" stroke-miterlimit="10" x1="16.82" y1="96.191" x2="87.201" y2="25.811"/><line fill="none" stroke="#000000" stroke-linecap="round" stroke-linejoin="round" stroke-miterlimit="10" x1="16.82" y1="86.191" x2="87.201" y2="15.811"/><line fill="none" stroke="#000000" stroke-linecap="round" stroke-linejoin="round" stroke-miterlimit="10" x1="16.82" y1="76.191" x2="87.201" y2="5.811"/><line fill="none" stroke="#000000" stroke-linecap="round" stroke-linejoin="round" stroke-miterlimit="10" x1="16.82" y1="66.191" x2="87.201" y2="-4.189"/><line fill="none" stroke="#000000" stroke-linecap="round" stroke-linejoin="round" stroke-miterlimit="10" x1="16.82" y1="56.191" x2="87.201" y2="-14.189"/><line fill="none" stroke="#000000" stroke-linecap="round" stroke-linejoin="round" stroke-miterlimit="10" x1="16.82" y1="46.191" x2="87.201" y2="-24.189"/><line fill="none" stroke="#000000" stroke-linecap="round" stroke-linejoin="round" stroke-miterlimit="10" x1="16.82" y1="36.191" x2="87.201" y2="-34.189"/><line fill="none" stroke="#000000" stroke-linecap="round" stroke-linejoin="round" stroke-miterlimit="10" x1="16.82" y1="26.191" x2="87.201" y2="-44.189"/><line fill="none" stroke="#000000" stroke-linecap="round" stroke-linejoin="round" stroke-miterlimit="10" x1="16.82" y1="16.191" x2="87.201" y2="-54.189"/></g><g clip-path="url(#a)"><line fill="none" stroke="#000000" stroke-width="0.5" stroke-linecap="round" stroke-linejoin="round" stroke-miterlimit="10" x1="16.82" y1="151.191" x2="87.201" y2="80.811"/><line fill="none" stroke="#000000" stroke-width="0.5" stroke-linecap="round" stroke-linejoin="round" stroke-miterlimit="10" x1="16.82" y1="141.191" x2="87.201" y2="70.811"/><line fill="none" stroke="#000000" stroke-width="0.5" stroke-linecap="round" stroke-linejoin="round" stroke-miterlimit="10" x1="16.82" y1="131.191" x2="87.201" y2="60.811"/><line fill="none" stroke="#000000" stroke-width="0.5" stroke-linecap="round" stroke-linejoin="round" stroke-miterlimit="10" x1="16.82" y1="121.191" x2="87.201" y2="50.811"/><line fill="none" stroke="#000000" stroke-width="0.5" stroke-linecap="round" stroke-linejoin="round" stroke-miterlimit="10" x1="16.82" y1="111.191" x2="87.201" y2="40.811"/><line fill="none" stroke="#000000" stroke-width="0.5" stroke-linecap="round" stroke-linejoin="round" stroke-miterlimit="10" x1="16.82" y1="101.191" x2="87.201" y2="30.811"/><line fill="none" stroke="#000000" stroke-width="0.5" stroke-linecap="round" stroke-linejoin="round" stroke-miterlimit="10" x1="16.82" y1="91.191" x2="87.201" y2="20.811"/><line fill="none" stroke="#000000" stroke-width="0.5" stroke-linecap="round" stroke-linejoin="round" stroke-miterlimit="10" x1="16.82" y1="81.191" x2="87.201" y2="10.811"/><line fill="none" stroke="#000000" stroke-width="0.5" stroke-linecap="round" stroke-linejoin="round" stroke-miterlimit="10" x1="16.82" y1="71.191" x2="87.201" y2="0.811"/><line fill="none" stroke="#000000" stroke-width="0.5" stroke-linecap="round" stroke-linejoin="round" stroke-miterlimit="10" x1="16.82" y1="61.191" x2="87.201" y2="-9.189"/><line fill="none" stroke="#000000" stroke-width="0.5" stroke-linecap="round" stroke-linejoin="round" stroke-miterlimit="10" x1="16.82" y1="51.191" x2="87.201" y2="-19.189"/><line fill="none" stroke="#000000" stroke-width="0.5" stroke-linecap="round" stroke-linejoin="round" stroke-miterlimit="10" x1="16.82" y1="41.191" x2="87.201" y2="-29.189"/><line fill="none" stroke="#000000" stroke-width="0.5" stroke-linecap="round" stroke-linejoin="round" stroke-miterlimit="10" x1="16.82" y1="31.191" x2="87.201" y2="-39.189"/><line fill="none" stroke="#000000" stroke-width="0.5" stroke-linecap="round" stroke-linejoin="round" stroke-miterlimit="10" x1="16.82" y1="21.191" x2="87.201" y2="-49.189"/></g></g><path fill="none" stroke="#000000" stroke-width="2" stroke-linecap="round" stroke-linejoin="round" stroke-miterlimit="10" d="    M80,90c0,2.762-2.238,5-5,5H25c-2.762,0-5-2.238-5-5V10c0-2.761,2.238-5,5-5h50c2.762,0,5,2.239,5,5V90z"/><path fill="none" stroke="#000000" stroke-width="3" stroke-linecap="round" stroke-linejoin="round" stroke-miterlimit="10" d="    M80,90c0,2.761-2.238,5-5,5H25c-2.762,0-5-2.239-5-5V10c0-2.761,2.238-5,5-5h50c2.762,0,5,2.239,5,5V90z"/><rect x="26" y="11" fill="#000000" stroke="#000000" stroke-width="3" stroke-linecap="round" stroke-linejoin="round" stroke-miterlimit="10" width="48" height="70"/><circle fill="#000000" stroke="#000000" stroke-width="3" stroke-linecap="round" stroke-linejoin="round" stroke-miterlimit="10" cx="50" cy="88" r="3.5"/><g><g><polyline fill="none" stroke="#000000" stroke-width="3" stroke-linecap="round" stroke-linejoin="round" stroke-miterlimit="10" points="      67.5,44.679 67.5,24.679 32.5,24.679 32.5,59.679 33.5,59.679     "/><path fill="none" stroke="#000000" stroke-width="3" stroke-linecap="round" stroke-linejoin="round" stroke-miterlimit="10" d="      M45.625,32.804c0,2.208-1.791,4-4,4c-2.205,0-4-1.792-4-4s1.795-4,4-4C43.834,28.804,45.625,30.596,45.625,32.804z"/><polyline fill="none" stroke="#000000" stroke-width="3" stroke-linecap="round" stroke-linejoin="round" stroke-miterlimit="10" points="      32.631,49.654 39.6,42.684 42.862,45.947     "/><polyline fill="none" stroke="#000000" stroke-width="3" stroke-linecap="round" stroke-linejoin="round" stroke-miterlimit="10" points="      43.086,46.171 52.273,36.981 54.441,39.149     "/></g><g><g><path fill="#000000" stroke="#000000" stroke-width="3" stroke-linecap="round" stroke-linejoin="round" stroke-miterlimit="10" d="       M66.965,56.046c0,0,1.395-0.545,1.395-3.085c0-3.085-2.721-3.118-2.721-3.118l-5.244-0.134c0,0-0.941-0.061-0.199-0.897       c2.191-2.223,2.82-5.012,2.854-7.533c0.033-2.521-1.922-4.908-2.918-4.81s-0.963,0.961-0.963,0.961s-0.234,4.346-1.691,6.307       c-1.461,1.957-2.492,2.124-3.686,2.853c-1.195,0.73-1.658,1.793-2.988,4.116c-1.326,2.32-3.881,1.856-3.881,1.856v-0.664       c0-0.659-0.535-1.192-1.195-1.192h-6.174c-0.658,0-1.193,0.533-1.193,1.192v14.238c0,0.659,0.535,1.195,1.193,1.195h6.174       c0.66,0,1.195-0.536,1.195-1.195v-0.498c0,0,2.211,0.191,3.086,1.567c1.344,2.116,2.813,2.116,2.813,2.116h9.035       c3.186,0,2.734-3.609,2.734-3.609s1.721-0.597,1.977-2.212c0.223-1.378-0.279-2.169-0.279-2.169s1.215-0.922,1.391-2.738       C67.854,56.775,66.965,56.046,66.965,56.046z"/><line fill="none" stroke="#000000" stroke-width="3" stroke-linecap="round" stroke-linejoin="round" stroke-miterlimit="10" x1="46.922" y1="52.562" x2="46.922" y2="65.638"/></g><g><defs><path id="d" d="M46.922,66.639c0,0.552-0.447,1-1,1h-6.563c-0.553,0-1-0.448-1-1V51.514c0-0.552,0.447-1,1-1h6.563        c0.553,0,1,0.448,1,1V66.639z"/></defs><clipPath id="c"><use xlink:href="#d" overflow="visible"/></clipPath><g clip-path="url(#c)"><line fill="none" stroke="#000000" stroke-width="2" stroke-linecap="round" stroke-linejoin="round" stroke-miterlimit="10" x1="31.936" y1="64.427" x2="55.35" y2="41.014"/><line fill="none" stroke="#000000" stroke-width="2" stroke-linecap="round" stroke-linejoin="round" stroke-miterlimit="10" x1="31.936" y1="69.427" x2="55.35" y2="46.014"/><line fill="none" stroke="#000000" stroke-width="2" stroke-linecap="round" stroke-linejoin="round" stroke-miterlimit="10" x1="31.936" y1="74.427" x2="55.35" y2="51.014"/></g></g></g></g></g></g><g><path d="M35,59.679c0,0.828-0.671,1.5-1.5,1.5h-1c-0.829,0-1.5-0.672-1.5-1.5v-35c0-0.828,0.671-1.5,1.5-1.5h35   c0.829,0,1.5,0.672,1.5,1.5v20c0,0.828-0.671,1.5-1.5,1.5s-1.5-0.672-1.5-1.5v-18.5H34v19.984l4.539-4.54   c0.563-0.563,1.559-0.563,2.122,0l2.425,2.426l8.127-8.128c0.563-0.563,1.559-0.563,2.121,0l2.168,2.168   c0.586,0.586,0.586,1.535,0,2.121s-1.535,0.586-2.121,0l-1.107-1.107l-8.127,8.129c-0.292,0.293-0.677,0.439-1.061,0.439   s-0.768-0.146-1.061-0.439c-0.04-0.039-0.055-0.091-0.089-0.134c-0.043-0.034-0.095-0.05-0.135-0.09L39.6,44.806L34,50.406v7.857   C34.583,58.47,35,59.025,35,59.679z M41.625,27.304c3.033,0,5.5,2.468,5.5,5.5s-2.467,5.5-5.5,5.5s-5.5-2.468-5.5-5.5   S38.592,27.304,41.625,27.304z M41.625,30.304c-1.378,0-2.5,1.121-2.5,2.5s1.122,2.5,2.5,2.5s2.5-1.121,2.5-2.5   S43.003,30.304,41.625,30.304z M68.883,56.329c0.231,0.601,0.386,1.396,0.288,2.408c-0.13,1.343-0.678,2.326-1.166,2.956   c0.118,0.527,0.176,1.217,0.042,2.046c-0.218,1.373-1.108,2.317-1.951,2.876c-0.058,0.836-0.3,1.989-1.103,2.898   c-0.527,0.597-1.499,1.308-3.139,1.308H52.82c-0.235,0-2.343-0.079-4.079-2.813c-0.138-0.217-0.395-0.39-0.683-0.523   c-0.467,0.804-1.337,1.346-2.333,1.346h-6.174c-1.485,0-2.693-1.209-2.693-2.695V51.897c0-1.484,1.208-2.692,2.693-2.692h6.174   c1.166,0,2.161,0.743,2.536,1.78c0.528-0.165,0.942-0.508,1.238-1.024l0.529-0.935c1.014-1.803,1.625-2.891,2.979-3.718   c0.311-0.189,0.611-0.346,0.911-0.501c0.806-0.416,1.442-0.745,2.355-1.969c0.953-1.282,1.33-4.385,1.393-5.443   c0.004-1.079,0.799-2.27,2.315-2.42c0.049-0.004,0.16-0.01,0.209-0.01c0.743,0,1.519,0.389,2.245,1.124   c0.993,1.006,2.142,2.974,2.112,5.208c-0.036,2.714-0.701,5.049-1.981,6.968l3.109,0.078c1.669,0.02,4.183,1.267,4.183,4.617   C69.859,54.581,69.398,55.646,68.883,56.329z M45.422,52.355l-5.563,5.562v2.173l5.563-5.563v-1.966V52.355z M39.859,62.917v2.172   l5.563-5.563v-2.172L39.859,62.917z M39.859,52.205v2.885l2.884-2.885H39.859z M45.422,65.638v-3.283l-3.477,3.477h3.477V65.638z    M66.859,52.961c0-1.285-0.688-1.59-1.265-1.619l-5.238-0.134c-0.689-0.043-1.481-0.373-1.813-1.177   c-0.17-0.413-0.327-1.249,0.529-2.215c1.647-1.674,2.439-3.8,2.476-6.558c0.015-1.11-0.503-2.128-0.972-2.742   c-0.172,1.581-0.647,4.433-1.896,6.114c-1.328,1.779-2.42,2.344-3.384,2.842c-0.238,0.123-0.478,0.246-0.724,0.396   c-0.655,0.4-0.984,0.95-1.928,2.628l-0.54,0.953c-0.802,1.403-2.116,2.299-3.683,2.561v10.418c0.943,0.285,2.136,0.846,2.852,1.972   c0.833,1.313,1.596,1.42,1.628,1.424l8.954-0.003c0.631,0,0.819-0.213,0.89-0.293c0.375-0.424,0.392-1.344,0.356-1.63   c-0.088-0.703,0.328-1.372,0.997-1.604c0,0,0,0,0,0c-0.001,0,0.877-0.341,0.987-1.029c0.122-0.754-0.085-1.164-0.094-1.182   c-0.418-0.658-0.231-1.477,0.39-1.948c0.008-0.007,0.698-0.586,0.804-1.688c0.09-0.93-0.227-1.29-0.24-1.305   c-0.52-0.322-0.79-0.804-0.687-1.406c0.1-0.583,0.535-0.936,1.105-1.075C66.489,54.554,66.859,54.136,66.859,52.961z M80.484,11.29   v77.42c0,3.469-2.822,6.29-6.291,6.29H25.807c-3.469,0-6.291-2.821-6.291-6.29V11.29c0-3.469,2.822-6.29,6.291-6.29h48.387   C77.662,5,80.484,7.821,80.484,11.29z M77.497,10.56c0.043,0.193,0.063,0.395,0.071,0.599C77.56,10.954,77.54,10.753,77.497,10.56z    M75.409,8.138c0.161,0.066,0.317,0.145,0.467,0.23l-2.458,2.457c0.71,0.096,1.26,0.697,1.26,1.434v1.119l2.819-2.818   C77.25,9.446,76.455,8.543,75.409,8.138z M71.16,7.903l-2.903,2.903h3.812l2.828-2.827c0.027,0.005,0.051,0.017,0.077,0.023   c-0.251-0.061-0.51-0.1-0.78-0.1H71.16z M59.488,81.452h-3.812l-2.094,2.093c0.644,0.715,1.068,1.616,1.195,2.618L59.488,81.452z    M48.064,86.769c0,1.067,0.868,1.936,1.936,1.936s1.936-0.868,1.936-1.936S51.067,84.833,50,84.833S48.064,85.701,48.064,86.769z    M49.857,81.944c-0.158,0.008-0.313,0.024-0.466,0.047C49.545,81.972,49.698,81.949,49.857,81.944z M53.242,83.202l1.75-1.75   h-3.813l-0.542,0.542C51.634,82.128,52.532,82.556,53.242,83.202z M71.774,78.548V13.71H28.226v64.838H71.774z M66.663,7.903   l-2.903,2.903h3.812l2.903-2.903H66.663z M61.482,7.903l-2.903,2.903h3.813l2.903-2.903H61.482z M56.985,7.903l-2.903,2.903h3.813   l2.903-2.903H56.985z M51.805,7.903l-2.903,2.903h3.813l2.903-2.903H51.805z M47.309,7.903l-2.903,2.903h3.812l2.903-2.903H47.309z    M42.127,7.903l-2.903,2.903h3.812l2.903-2.903H42.127z M37.631,7.903l-2.903,2.903h3.812l2.903-2.903H37.631z M32.45,7.903   l-2.903,2.903h3.813l2.903-2.903H32.45z M22.419,12.069l4.166-4.166h-0.778c-1.868,0-3.387,1.52-3.387,3.387V12.069z M22.419,17.25   l2.903-2.903v-2.088c0-0.803,0.649-1.452,1.452-1.452h2.088l2.903-2.903h-3.813l-5.534,5.534V17.25z M22.419,21.747l2.903-2.904   V15.03l-2.903,2.904V21.747z M22.419,26.927l2.903-2.902v-3.813l-2.903,2.902V26.927z M22.419,31.424l2.903-2.903v-3.813   l-2.903,2.903V31.424z M22.419,36.604l2.903-2.902V29.89l-2.903,2.902V36.604z M22.419,41.101l2.903-2.902v-3.813l-2.903,2.903   V41.101z M22.419,46.282l2.903-2.903v-3.813l-2.903,2.903V46.282z M22.419,50.778l2.903-2.902v-3.813l-2.903,2.902V50.778z    M22.419,55.96l2.903-2.904v-3.812l-2.903,2.903V55.96z M22.419,60.456l2.903-2.903v-3.812l-2.903,2.902V60.456z M22.419,65.637   l2.903-2.903v-3.813l-2.903,2.904V65.637z M22.419,70.134l2.903-2.903v-3.813l-2.903,2.903V70.134z M22.419,75.314l2.903-2.903   v-3.813l-2.903,2.903V75.314z M22.419,79.812l2.903-2.904v-3.813l-2.903,2.904V79.812z M22.419,84.991l3.702-3.701   c-0.472-0.24-0.798-0.725-0.798-1.29v-1.724l-2.903,2.902V84.991z M22.419,88.71c0,0.242,0.028,0.477,0.076,0.705   c0-0.002,0-0.002,0-0.002l7.961-7.961h-3.682c-0.041,0-0.079-0.01-0.119-0.012l-4.236,4.235V88.71z M22.883,90.39   c-0.085-0.148-0.163-0.304-0.228-0.464C22.717,90.088,22.797,90.24,22.883,90.39z M25.076,92.013l10.562-10.561h-3.813l-8.94,8.939   C23.353,91.202,24.137,91.805,25.076,92.013z M25.677,92.083c-0.205-0.007-0.407-0.027-0.602-0.07   C25.271,92.056,25.472,92.076,25.677,92.083z M29.488,92.097l10.646-10.645h-3.813L25.688,92.085   c0.041,0.002,0.078,0.012,0.119,0.012H29.488z M34.669,92.097l10.645-10.645h-3.813L30.857,92.097H34.669z M39.166,92.097   l6.07-6.07c0.322-2.07,1.951-3.699,4.021-4.021l0.553-0.553h-3.813L35.354,92.097H39.166z M45.162,86.76   c0-0.247,0.037-0.484,0.073-0.722C45.198,86.275,45.164,86.513,45.162,86.76z M44.347,92.097l2.084-2.084   c0.008,0.01,0.018,0.018,0.027,0.027c-0.797-0.863-1.295-2.006-1.296-3.27l0,0.004c0,0.217,0.037,0.423,0.064,0.631l-4.691,4.691   H44.347z M54.024,92.097l10.646-10.645h-3.813l-6.097,6.096c0.041-0.254,0.079-0.509,0.079-0.773l0-0.003   c-0.001,2.667-2.171,4.836-4.838,4.836c-1.26,0-2.398-0.495-3.26-1.288c0.012,0.012,0.022,0.023,0.034,0.035l-1.743,1.742h3.813   l0.546-0.546c0.202,0.026,0.401,0.062,0.611,0.062c0.265,0,0.52-0.036,0.774-0.078l-0.562,0.563H54.024z M58.521,92.097   l10.646-10.645h-3.813L54.708,92.097H58.521z M77.581,88.579l-3.518,3.518h0.13c1.868,0,3.387-1.52,3.387-3.387V88.579z    M77.581,84.083l-8.014,8.014h3.813l4.202-4.201V84.083z M77.581,78.901L64.386,92.097h3.813l9.382-9.383V78.901z M77.581,74.405   l-2.903,2.903V80c0,0.802-0.649,1.452-1.452,1.452h-2.691L59.889,92.097h3.813l13.879-13.879V74.405z M77.581,69.225l-2.903,2.903   v3.813l2.903-2.904V69.225z M77.581,64.728l-2.903,2.903v3.813l2.903-2.903V64.728z M77.581,59.547l-2.903,2.903v3.813l2.903-2.903   V59.547z M77.581,55.05l-2.903,2.904v3.813l2.903-2.904V55.05z M77.581,49.87l-2.903,2.902v3.813l2.903-2.902V49.87z    M77.581,45.373l-2.903,2.903v3.813l2.903-2.903V45.373z M77.581,40.192l-2.903,2.902v3.813l2.903-2.902V40.192z M77.581,35.696   l-2.903,2.902v3.813l2.903-2.903V35.696z M77.581,30.515l-2.903,2.903v3.813l2.903-2.903V30.515z M77.581,26.019l-2.903,2.902   v3.813l2.903-2.902V26.019z M77.581,20.837l-2.903,2.904v3.812l2.903-2.903V20.837z M77.581,16.341l-2.903,2.902v3.813l2.903-2.902   V16.341z M77.581,11.29c0-0.041-0.01-0.078-0.012-0.119l-2.892,2.892v3.813l2.903-2.903V11.29z"/></g></svg>