<svg width="16" height="20" viewBox="0 0 16 20" fill="none" xmlns="http://www.w3.org/2000/svg">
<path d="M0.96967 10.9697C0.676777 11.2626 0.676777 11.7374 0.96967 12.0303C1.26256 12.3232 1.73744 12.3232 2.03033 12.0303L7 7.06066V19.25C7 19.6642 7.33579 20 7.75 20C8.16421 20 8.5 19.6642 8.5 19.25V7.06066L13.4697 12.0303C13.7626 12.3232 14.2374 12.3232 14.5303 12.0303C14.8232 11.7374 14.8232 11.2626 14.5303 10.9697L8.28033 4.71967C7.98744 4.42678 7.51256 4.42678 7.21967 4.71967L0.96967 10.9697Z" fill="white"/>
<path d="M0.75 1.5C0.335786 1.5 0 1.16421 0 0.75C0 0.335787 0.335786 0 0.75 0H15.25C15.6642 0 16 0.335787 16 0.75C16 1.16421 15.6642 1.5 15.25 1.5H0.75Z" fill="white"/>
</svg>
